<svg xmlns="http://www.w3.org/2000/svg" xmlns:xlink="http://www.w3.org/1999/xlink" width="190" zoomAndPan="magnify" viewBox="0 0 142.5 30.000001" height="40" preserveAspectRatio="xMidYMid meet" version="1.0"><defs><g/><clipPath id="id1"><path d="M 19.96875 1.242188 L 46.917969 1.242188 L 46.917969 28.191406 L 19.96875 28.191406 Z M 19.96875 1.242188 " clip-rule="nonzero"/></clipPath><clipPath id="id2"><path d="M 135.96875 7.867188 L 138.878906 7.867188 L 138.878906 10.78125 L 135.96875 10.78125 Z M 135.96875 7.867188 " clip-rule="nonzero"/></clipPath></defs><g fill="#ffffff" fill-opacity="1"><g transform="translate(4.022586, 21.746651)"><g><path d="M 0.46875 -7.625 C 0.46875 -8.539062 0.628906 -9.441406 0.953125 -10.328125 C 1.273438 -11.210938 1.75 -12.003906 2.375 -12.703125 C 3 -13.410156 3.757812 -13.984375 4.65625 -14.421875 C 5.550781 -14.859375 6.566406 -15.078125 7.703125 -15.078125 C 9.035156 -15.078125 10.203125 -14.773438 11.203125 -14.171875 C 12.203125 -13.578125 12.941406 -12.785156 13.421875 -11.796875 L 10.28125 -9.5625 C 10.15625 -9.925781 9.988281 -10.226562 9.78125 -10.46875 C 9.582031 -10.707031 9.363281 -10.894531 9.125 -11.03125 C 8.882812 -11.175781 8.628906 -11.273438 8.359375 -11.328125 C 8.085938 -11.390625 7.84375 -11.421875 7.625 -11.421875 C 7.101562 -11.421875 6.65625 -11.300781 6.28125 -11.0625 C 5.90625 -10.832031 5.59375 -10.53125 5.34375 -10.15625 C 5.101562 -9.789062 4.925781 -9.367188 4.8125 -8.890625 C 4.695312 -8.421875 4.640625 -7.957031 4.640625 -7.5 C 4.640625 -6.976562 4.707031 -6.476562 4.84375 -6 C 4.976562 -5.519531 5.175781 -5.09375 5.4375 -4.71875 C 5.695312 -4.351562 6.007812 -4.0625 6.375 -3.84375 C 6.75 -3.632812 7.175781 -3.53125 7.65625 -3.53125 C 7.894531 -3.53125 8.140625 -3.5625 8.390625 -3.625 C 8.648438 -3.6875 8.894531 -3.789062 9.125 -3.9375 C 9.363281 -4.082031 9.578125 -4.269531 9.765625 -4.5 C 9.953125 -4.738281 10.101562 -5.023438 10.21875 -5.359375 L 13.578125 -3.359375 C 13.359375 -2.804688 13.035156 -2.3125 12.609375 -1.875 C 12.179688 -1.4375 11.691406 -1.070312 11.140625 -0.78125 C 10.597656 -0.488281 10.015625 -0.265625 9.390625 -0.109375 C 8.773438 0.046875 8.171875 0.125 7.578125 0.125 C 6.535156 0.125 5.578125 -0.09375 4.703125 -0.53125 C 3.835938 -0.976562 3.085938 -1.566406 2.453125 -2.296875 C 1.828125 -3.035156 1.335938 -3.867188 0.984375 -4.796875 C 0.640625 -5.722656 0.46875 -6.664062 0.46875 -7.625 Z M 0.46875 -7.625 "/></g></g></g><g fill="#ffffff" fill-opacity="1"><g transform="translate(17.417456, 21.746651)"><g/></g></g><g fill="#ffffff" fill-opacity="1"><g transform="translate(21.745021, 21.746651)"><g/></g></g><g fill="#ffffff" fill-opacity="1"><g transform="translate(26.066649, 21.746651)"><g><path d="M 7.640625 0.125 C 6.566406 0.125 5.59375 -0.09375 4.71875 -0.53125 C 3.84375 -0.96875 3.085938 -1.539062 2.453125 -2.25 C 1.828125 -2.957031 1.34375 -3.769531 1 -4.6875 C 0.65625 -5.601562 0.484375 -6.546875 0.484375 -7.515625 C 0.484375 -8.503906 0.660156 -9.453125 1.015625 -10.359375 C 1.378906 -11.273438 1.882812 -12.082031 2.53125 -12.78125 C 3.175781 -13.476562 3.9375 -14.035156 4.8125 -14.453125 C 5.695312 -14.867188 6.664062 -15.078125 7.71875 -15.078125 C 8.789062 -15.078125 9.765625 -14.859375 10.640625 -14.421875 C 11.523438 -13.984375 12.28125 -13.40625 12.90625 -12.6875 C 13.53125 -11.96875 14.007812 -11.148438 14.34375 -10.234375 C 14.6875 -9.316406 14.859375 -8.382812 14.859375 -7.4375 C 14.859375 -6.445312 14.675781 -5.5 14.3125 -4.59375 C 13.957031 -3.6875 13.460938 -2.882812 12.828125 -2.1875 C 12.203125 -1.488281 11.441406 -0.925781 10.546875 -0.5 C 9.660156 -0.0820312 8.691406 0.125 7.640625 0.125 Z M 4.671875 -7.46875 C 4.671875 -6.96875 4.726562 -6.476562 4.84375 -6 C 4.96875 -5.53125 5.15625 -5.113281 5.40625 -4.75 C 5.65625 -4.382812 5.96875 -4.085938 6.34375 -3.859375 C 6.726562 -3.640625 7.175781 -3.53125 7.6875 -3.53125 C 8.207031 -3.53125 8.65625 -3.644531 9.03125 -3.875 C 9.414062 -4.101562 9.726562 -4.40625 9.96875 -4.78125 C 10.207031 -5.15625 10.382812 -5.582031 10.5 -6.0625 C 10.625 -6.539062 10.6875 -7.023438 10.6875 -7.515625 C 10.6875 -8.023438 10.617188 -8.515625 10.484375 -8.984375 C 10.359375 -9.453125 10.171875 -9.863281 9.921875 -10.21875 C 9.679688 -10.582031 9.367188 -10.875 8.984375 -11.09375 C 8.609375 -11.3125 8.164062 -11.421875 7.65625 -11.421875 C 7.132812 -11.421875 6.6875 -11.304688 6.3125 -11.078125 C 5.945312 -10.859375 5.640625 -10.5625 5.390625 -10.1875 C 5.148438 -9.8125 4.96875 -9.390625 4.84375 -8.921875 C 4.726562 -8.453125 4.671875 -7.96875 4.671875 -7.46875 Z M 4.671875 -7.46875 "/></g></g></g><g fill="#ffffff" fill-opacity="1"><g transform="translate(40.986508, 21.746651)"><g/></g></g><g fill="#ffffff" fill-opacity="1"><g transform="translate(45.314073, 21.746651)"><g/></g></g><g fill="#ffffff" fill-opacity="1"><g transform="translate(49.635701, 21.746651)"><g><path d="M 18.90625 0 L 14.90625 0 L 14.90625 -6.25 C 14.90625 -6.800781 14.796875 -7.195312 14.578125 -7.4375 C 14.359375 -7.6875 14.09375 -7.8125 13.78125 -7.8125 C 13.457031 -7.8125 13.113281 -7.660156 12.75 -7.359375 C 12.394531 -7.066406 12.132812 -6.691406 11.96875 -6.234375 L 11.96875 0 L 7.953125 0 L 7.953125 -6.25 C 7.953125 -6.800781 7.84375 -7.195312 7.625 -7.4375 C 7.40625 -7.6875 7.144531 -7.8125 6.84375 -7.8125 C 6.519531 -7.8125 6.175781 -7.660156 5.8125 -7.359375 C 5.457031 -7.066406 5.195312 -6.691406 5.03125 -6.234375 L 5.03125 0 L 1.015625 0 L 1.015625 -11.109375 L 4.625 -11.109375 L 4.625 -9.453125 C 5.019531 -10.054688 5.5625 -10.515625 6.25 -10.828125 C 6.9375 -11.148438 7.753906 -11.3125 8.703125 -11.3125 C 9.148438 -11.3125 9.539062 -11.257812 9.875 -11.15625 C 10.21875 -11.050781 10.507812 -10.90625 10.75 -10.71875 C 11 -10.539062 11.195312 -10.335938 11.34375 -10.109375 C 11.488281 -9.890625 11.601562 -9.648438 11.6875 -9.390625 C 12.082031 -9.992188 12.617188 -10.460938 13.296875 -10.796875 C 13.984375 -11.140625 14.765625 -11.3125 15.640625 -11.3125 C 16.367188 -11.3125 16.945312 -11.171875 17.375 -10.890625 C 17.8125 -10.617188 18.140625 -10.28125 18.359375 -9.875 C 18.585938 -9.46875 18.734375 -9.03125 18.796875 -8.5625 C 18.867188 -8.101562 18.90625 -7.679688 18.90625 -7.296875 Z M 18.90625 0 "/></g></g></g><g fill="#ffffff" fill-opacity="1"><g transform="translate(69.0575, 21.746651)"><g><path d="M 8.484375 0.21875 C 7.679688 0.21875 6.984375 0.0625 6.390625 -0.25 C 5.804688 -0.570312 5.351562 -1.035156 5.03125 -1.640625 L 5.03125 4.5 L 1.015625 4.5 L 1.015625 -11.109375 L 4.5 -11.109375 L 4.5 -9.4375 C 4.894531 -10.039062 5.378906 -10.503906 5.953125 -10.828125 C 6.523438 -11.148438 7.234375 -11.3125 8.078125 -11.3125 C 8.816406 -11.3125 9.5 -11.164062 10.125 -10.875 C 10.757812 -10.59375 11.300781 -10.195312 11.75 -9.6875 C 12.207031 -9.175781 12.566406 -8.566406 12.828125 -7.859375 C 13.085938 -7.160156 13.21875 -6.40625 13.21875 -5.59375 C 13.21875 -4.757812 13.097656 -3.988281 12.859375 -3.28125 C 12.617188 -2.570312 12.285156 -1.957031 11.859375 -1.4375 C 11.441406 -0.914062 10.941406 -0.507812 10.359375 -0.21875 C 9.785156 0.0703125 9.160156 0.21875 8.484375 0.21875 Z M 7.09375 -3.171875 C 7.382812 -3.171875 7.65625 -3.234375 7.90625 -3.359375 C 8.15625 -3.484375 8.363281 -3.65625 8.53125 -3.875 C 8.707031 -4.101562 8.847656 -4.363281 8.953125 -4.65625 C 9.066406 -4.957031 9.125 -5.273438 9.125 -5.609375 C 9.125 -6.316406 8.921875 -6.878906 8.515625 -7.296875 C 8.117188 -7.722656 7.585938 -7.9375 6.921875 -7.9375 C 6.179688 -7.9375 5.550781 -7.554688 5.03125 -6.796875 L 5.03125 -4.875 C 5.21875 -4.382812 5.5 -3.976562 5.875 -3.65625 C 6.257812 -3.332031 6.664062 -3.171875 7.09375 -3.171875 Z M 7.09375 -3.171875 "/></g></g></g><g fill="#ffffff" fill-opacity="1"><g transform="translate(82.272717, 21.746651)"><g><path d="M 4.390625 0.21875 C 3.265625 0.21875 2.40625 -0.125 1.8125 -0.8125 C 1.21875 -1.5 0.921875 -2.492188 0.921875 -3.796875 L 0.921875 -11.109375 L 4.9375 -11.109375 L 4.9375 -4.703125 C 4.9375 -4.210938 5.046875 -3.832031 5.265625 -3.5625 C 5.484375 -3.300781 5.78125 -3.171875 6.15625 -3.171875 C 6.46875 -3.171875 6.785156 -3.238281 7.109375 -3.375 C 7.429688 -3.519531 7.753906 -3.832031 8.078125 -4.3125 L 8.078125 -11.109375 L 12.09375 -11.109375 L 12.09375 -4.4375 C 12.09375 -4.050781 12.160156 -3.785156 12.296875 -3.640625 C 12.441406 -3.492188 12.695312 -3.40625 13.0625 -3.375 L 13.0625 0 C 12.65625 0.0703125 12.296875 0.125 11.984375 0.15625 C 11.679688 0.195312 11.410156 0.21875 11.171875 0.21875 C 9.804688 0.21875 9.015625 -0.296875 8.796875 -1.328125 L 8.71875 -1.734375 C 8.195312 -1.046875 7.578125 -0.546875 6.859375 -0.234375 C 6.140625 0.0664062 5.316406 0.21875 4.390625 0.21875 Z M 4.390625 0.21875 "/></g></g></g><g fill="#ffffff" fill-opacity="1"><g transform="translate(95.487934, 21.746651)"><g><path d="M 8.796875 -0.609375 C 8.234375 -0.367188 7.628906 -0.164062 6.984375 0 C 6.347656 0.15625 5.722656 0.234375 5.109375 0.234375 C 4.660156 0.234375 4.226562 0.175781 3.8125 0.0625 C 3.40625 -0.0507812 3.050781 -0.234375 2.75 -0.484375 C 2.445312 -0.734375 2.207031 -1.0625 2.03125 -1.46875 C 1.851562 -1.882812 1.765625 -2.394531 1.765625 -3 L 1.765625 -8.078125 L 0.40625 -8.078125 L 0.40625 -11.109375 L 1.765625 -11.109375 L 1.765625 -14.59375 L 5.78125 -14.59375 L 5.78125 -11.109375 L 7.953125 -11.109375 L 7.953125 -8.078125 L 5.78125 -8.078125 L 5.78125 -4.40625 C 5.78125 -4.039062 5.859375 -3.785156 6.015625 -3.640625 C 6.171875 -3.492188 6.382812 -3.421875 6.65625 -3.421875 C 6.84375 -3.421875 7.0625 -3.453125 7.3125 -3.515625 C 7.570312 -3.578125 7.828125 -3.664062 8.078125 -3.78125 Z M 8.796875 -0.609375 "/></g></g></g><g fill="#ffffff" fill-opacity="1"><g transform="translate(104.016554, 21.746651)"><g><path d="M 6.484375 0.21875 C 5.515625 0.21875 4.648438 0.0664062 3.890625 -0.234375 C 3.128906 -0.546875 2.488281 -0.960938 1.96875 -1.484375 C 1.457031 -2.003906 1.066406 -2.597656 0.796875 -3.265625 C 0.535156 -3.941406 0.40625 -4.65625 0.40625 -5.40625 C 0.40625 -6.207031 0.535156 -6.96875 0.796875 -7.6875 C 1.054688 -8.40625 1.441406 -9.03125 1.953125 -9.5625 C 2.460938 -10.09375 3.09375 -10.515625 3.84375 -10.828125 C 4.601562 -11.148438 5.484375 -11.3125 6.484375 -11.3125 C 7.460938 -11.3125 8.332031 -11.148438 9.09375 -10.828125 C 9.851562 -10.515625 10.488281 -10.09375 11 -9.5625 C 11.519531 -9.039062 11.910156 -8.429688 12.171875 -7.734375 C 12.429688 -7.035156 12.5625 -6.304688 12.5625 -5.546875 C 12.5625 -5.335938 12.550781 -5.125 12.53125 -4.90625 C 12.507812 -4.6875 12.484375 -4.492188 12.453125 -4.328125 L 4.671875 -4.328125 C 4.710938 -3.734375 4.925781 -3.304688 5.3125 -3.046875 C 5.707031 -2.785156 6.140625 -2.65625 6.609375 -2.65625 C 7.046875 -2.65625 7.457031 -2.753906 7.84375 -2.953125 C 8.226562 -3.148438 8.484375 -3.425781 8.609375 -3.78125 L 12.015625 -2.8125 C 11.554688 -1.925781 10.859375 -1.195312 9.921875 -0.625 C 8.992188 -0.0625 7.847656 0.21875 6.484375 0.21875 Z M 8.25 -6.734375 C 8.175781 -7.265625 7.976562 -7.6875 7.65625 -8 C 7.332031 -8.3125 6.921875 -8.46875 6.421875 -8.46875 C 5.910156 -8.46875 5.492188 -8.3125 5.171875 -8 C 4.847656 -7.6875 4.648438 -7.265625 4.578125 -6.734375 Z M 8.25 -6.734375 "/></g></g></g><g fill="#ffffff" fill-opacity="1"><g transform="translate(116.471786, 21.746651)"><g><path d="M 8.546875 -7.6875 C 7.773438 -7.6875 7.070312 -7.597656 6.4375 -7.421875 C 5.800781 -7.253906 5.332031 -6.976562 5.03125 -6.59375 L 5.03125 0 L 1.015625 0 L 1.015625 -11.109375 L 4.6875 -11.109375 L 4.6875 -9 C 5.082031 -9.738281 5.570312 -10.304688 6.15625 -10.703125 C 6.738281 -11.109375 7.367188 -11.3125 8.046875 -11.3125 C 8.304688 -11.3125 8.472656 -11.304688 8.546875 -11.296875 Z M 8.546875 -7.6875 "/></g></g></g><g fill="#ffffff" fill-opacity="1"><g transform="translate(124.852626, 21.746651)"><g><path d="M 4.03125 -11.109375 L 5.609375 -8.375 L 5.828125 -7.9375 L 6.03125 -8.375 L 7.625 -11.109375 L 11.6875 -11.109375 L 7.984375 -5.546875 L 11.796875 0 L 7.71875 0 L 6.015625 -2.71875 L 5.828125 -3.140625 L 5.640625 -2.71875 L 3.921875 0 L -0.140625 0 L 3.671875 -5.546875 L -0.046875 -11.109375 Z M 4.03125 -11.109375 "/></g></g></g><path fill="#cc52be" d="M 34.578125 3.570312 L 34.578125 9.535156 C 36.695312 9.789062 38.648438 10.753906 40.152344 12.300781 C 41.863281 14.058594 42.804688 16.378906 42.804688 18.828125 C 42.804688 19.710938 42.675781 20.558594 42.445312 21.371094 C 43.824219 19.507812 44.644531 17.207031 44.644531 14.71875 C 44.644531 8.921875 40.226562 4.140625 34.578125 3.570312 Z M 34.578125 3.570312 " fill-opacity="1" fill-rule="nonzero"/><path fill="#6bdba1" d="M 24.082031 10.601562 C 24.082031 9.722656 24.210938 8.871094 24.441406 8.0625 C 23.0625 9.925781 22.242188 12.226562 22.242188 14.714844 C 22.242188 20.511719 26.664062 25.289062 32.308594 25.859375 L 32.308594 19.898438 C 30.191406 19.640625 28.238281 18.675781 26.734375 17.128906 C 25.023438 15.371094 24.082031 13.054688 24.082031 10.601562 Z M 24.082031 10.601562 " fill-opacity="1" fill-rule="nonzero"/><path fill="#64d8d0" d="M 33.65625 11.742188 C 33.585938 11.738281 33.515625 11.738281 33.445312 11.738281 C 32.816406 11.738281 32.308594 11.230469 32.308594 10.601562 L 32.308594 3.613281 C 28.9375 4.160156 26.351562 7.082031 26.351562 10.601562 C 26.351562 12.460938 27.066406 14.214844 28.363281 15.546875 C 29.652344 16.875 31.382812 17.636719 33.230469 17.691406 C 33.300781 17.691406 33.375 17.691406 33.445312 17.691406 C 34.070312 17.691406 34.578125 18.199219 34.578125 18.828125 L 34.578125 25.820312 C 37.949219 25.273438 40.535156 22.351562 40.535156 18.828125 C 40.535156 16.972656 39.820312 15.214844 38.527344 13.886719 C 37.234375 12.558594 35.503906 11.796875 33.65625 11.742188 Z M 33.65625 11.742188 " fill-opacity="1" fill-rule="nonzero"/><g clip-path="url(#id1)"><path fill="#ffffff" d="M 33.445312 1.242188 C 26.015625 1.242188 19.96875 7.285156 19.96875 14.714844 C 19.96875 22.144531 26.015625 28.191406 33.445312 28.191406 C 40.875 28.191406 46.917969 22.144531 46.917969 14.714844 C 46.917969 7.285156 40.875 1.242188 33.445312 1.242188 Z M 32.308594 25.859375 C 26.660156 25.289062 22.242188 20.511719 22.242188 14.714844 C 22.242188 12.226562 23.0625 9.925781 24.441406 8.0625 C 24.210938 8.871094 24.082031 9.722656 24.082031 10.601562 C 24.082031 13.054688 25.023438 15.371094 26.734375 17.128906 C 28.238281 18.675781 30.191406 19.640625 32.308594 19.898438 Z M 34.578125 25.820312 L 34.578125 18.828125 C 34.578125 18.203125 34.070312 17.691406 33.445312 17.691406 C 33.375 17.691406 33.300781 17.691406 33.230469 17.691406 C 31.382812 17.636719 29.652344 16.875 28.363281 15.546875 C 27.066406 14.214844 26.351562 12.460938 26.351562 10.601562 C 26.351562 7.082031 28.9375 4.160156 32.308594 3.613281 L 32.308594 10.601562 C 32.308594 11.230469 32.816406 11.738281 33.445312 11.738281 C 33.515625 11.738281 33.585938 11.738281 33.65625 11.742188 C 35.503906 11.796875 37.234375 12.558594 38.527344 13.886719 C 39.820312 15.214844 40.535156 16.972656 40.535156 18.828125 C 40.535156 22.351562 37.949219 25.273438 34.578125 25.820312 Z M 42.445312 21.367188 C 42.675781 20.558594 42.804688 19.710938 42.804688 18.828125 C 42.804688 16.375 41.863281 14.058594 40.152344 12.300781 C 38.648438 10.753906 36.695312 9.789062 34.578125 9.535156 L 34.578125 3.570312 C 40.226562 4.140625 44.644531 8.921875 44.644531 14.714844 C 44.644531 17.207031 43.824219 19.507812 42.445312 21.367188 Z M 42.445312 21.367188 " fill-opacity="1" fill-rule="nonzero"/></g><g clip-path="url(#id2)"><path fill="#ffffff" d="M 137.425781 7.867188 C 136.621094 7.867188 135.96875 8.519531 135.96875 9.324219 C 135.96875 10.125 136.621094 10.78125 137.425781 10.78125 C 138.226562 10.78125 138.878906 10.125 138.878906 9.324219 C 138.878906 8.519531 138.226562 7.867188 137.425781 7.867188 Z M 137.425781 8.160156 C 138.070312 8.160156 138.589844 8.679688 138.589844 9.324219 C 138.589844 9.96875 138.070312 10.488281 137.425781 10.488281 C 136.777344 10.488281 136.257812 9.96875 136.257812 9.324219 C 136.257812 8.679688 136.777344 8.160156 137.425781 8.160156 Z M 136.988281 8.742188 L 136.988281 9.90625 L 137.226562 9.90625 L 137.226562 9.480469 L 137.417969 9.480469 L 137.636719 9.90625 L 137.894531 9.90625 L 137.894531 9.894531 L 137.644531 9.417969 C 137.675781 9.40625 137.703125 9.386719 137.730469 9.367188 C 137.753906 9.347656 137.777344 9.324219 137.792969 9.296875 C 137.8125 9.273438 137.828125 9.242188 137.835938 9.207031 C 137.847656 9.175781 137.851562 9.136719 137.851562 9.09375 C 137.851562 9.035156 137.839844 8.984375 137.820312 8.941406 C 137.800781 8.898438 137.773438 8.859375 137.738281 8.832031 C 137.699219 8.800781 137.65625 8.78125 137.601562 8.765625 C 137.546875 8.75 137.488281 8.742188 137.421875 8.742188 Z M 137.226562 8.9375 L 137.421875 8.9375 C 137.484375 8.9375 137.53125 8.953125 137.5625 8.984375 C 137.59375 9.015625 137.609375 9.058594 137.609375 9.113281 C 137.609375 9.140625 137.605469 9.164062 137.597656 9.183594 C 137.589844 9.203125 137.578125 9.222656 137.5625 9.238281 C 137.546875 9.253906 137.527344 9.265625 137.503906 9.273438 C 137.480469 9.28125 137.453125 9.285156 137.421875 9.285156 L 137.226562 9.285156 Z M 137.226562 8.9375 " fill-opacity="1" fill-rule="nonzero"/></g></svg>